# xmcd CD database file
#
# Track frame offsets:
#	150
#	14255
#	32212
#	43237
#	58012
#	71375
#	86755
#	98512
#	113262
#	129917
#	143962
#	160762
#	171302
#	182512
#	194825
#	206072
#	218975
#	239062
#
# Disc length: 3285 seconds
#
# Revision: 0
# Processed by: cddbd v1.4PL0 Copyright (c) Steve Scherf et al.
# Submitted via: CDex 1.50
#
DISCID=040cd312
DTITLE=BullMilk - No Yii - Has' Please
DYEAR=1994
DGENRE=Country
TTITLE0=Polly Wolly Doodle
TTITLE1=Take a Sniff
TTITLE2=Coloured Aristocracy - Soldiers Joy
TTITLE3=Fishin Blues
TTITLE4=Toot Toot
TTITLE5=Homegrown Tomatoes
TTITLE6=Hop Hi Ladies
TTITLE7=Walk on Boy
TTITLE8=Ann Eliza Jane
TTITLE9=Duellin Banjos
TTITLE10=Big Fat Mama
TTITLE11=Red Apple Rag
TTITLE12=Stay All Night
TTITLE13=Lonesome Fiddle Blues
TTITLE14=Ditty Wha Ditty
TTITLE15=More Pretty Girls
TTITLE16=Tearstained Letter
TTITLE17=Oscame
EXTD=YEAR: 1994
EXTT0=
EXTT1=
EXTT2=
EXTT3=
EXTT4=
EXTT5=
EXTT6=
EXTT7=
EXTT8=
EXTT9=
EXTT10=
EXTT11=
EXTT12=
EXTT13=
EXTT14=
EXTT15=
EXTT16=
EXTT17=
PLAYORDER=
